<?xml version="1.0" encoding="UTF-8"?>
<svg xmlns="http://www.w3.org/2000/svg" viewBox="0 0 1024 1024" role="img" aria-labelledby="title desc">
<title id="title">chAI GO · monograma GO</title>
<desc id="desc">Ícone vetorial oficial do ecossistema chAI, padronizado em geometria, espessura e alinhamento.</desc>
<defs>
<linearGradient id="surface" x1="0" y1="0" x2="1" y2="1"><stop offset="0" stop-color="#19D9F4"/><stop offset=".28" stop-color="#2573FF"/><stop offset=".58" stop-color="#6B35F5"/><stop offset=".82" stop-color="#B826EE"/><stop offset="1" stop-color="#FF2B93"/></linearGradient>
<linearGradient id="edge" x1="0" y1="0" x2="1" y2="0"><stop offset="0" stop-color="#4FE8FF"/><stop offset=".48" stop-color="#FFFFFF"/><stop offset="1" stop-color="#FF54B9"/></linearGradient>
<linearGradient id="glass" x1="0" y1="0" x2="1" y2="1"><stop offset="0" stop-color="#FFFFFF" stop-opacity=".34"/><stop offset=".48" stop-color="#FFFFFF" stop-opacity=".08"/><stop offset="1" stop-color="#FFFFFF" stop-opacity="0"/></linearGradient>
<filter id="tileGlow" x="-25%" y="-25%" width="150%" height="150%" color-interpolation-filters="sRGB"><feGaussianBlur stdDeviation="22" result="blur"/><feColorMatrix in="blur" type="matrix" values="1 0 0 0 0  0 1 0 0 0  0 0 1 0 0  0 0 0 .65 0"/></filter>
<filter id="softGlow" x="-30%" y="-30%" width="160%" height="160%" color-interpolation-filters="sRGB"><feGaussianBlur stdDeviation="10" result="blur"/><feMerge><feMergeNode in="blur"/><feMergeNode in="SourceGraphic"/></feMerge></filter>
<clipPath id="tileClip"><rect x="92" y="84" width="840" height="840" rx="188"/></clipPath>
</defs>
<rect x="92" y="84" width="840" height="840" rx="188" fill="url(#surface)" opacity=".9" filter="url(#tileGlow)"/>
<rect x="92" y="84" width="840" height="840" rx="188" fill="url(#surface)"/>
<rect x="92" y="84" width="840" height="840" rx="188" fill="none" stroke="url(#edge)" stroke-width="13"/>
<rect x="116" y="108" width="792" height="792" rx="168" fill="none" stroke="#FFFFFF" stroke-opacity=".34" stroke-width="4"/>
<g clip-path="url(#tileClip)"><path d="M110 110H914V230C720 254 545 318 390 414C278 484 190 560 92 664V84H932V160C640 165 370 177 110 230Z" fill="url(#glass)"/><path d="M114 120C410 106 676 115 904 146" fill="none" stroke="#FFFFFF" stroke-opacity=".28" stroke-width="8" stroke-linecap="round"/></g>
<g fill="#FFFFFF" filter="url(#softGlow)" transform="translate(197.9060 620) scale(0.2013423 -0.2013423)"><path d="M771 -24C1126 -24 1400 236 1400 584V745H832V585H1222C1220 323 1019 144 771 144C473 144 270 390 270 744C270 1100 473 1346 771 1346C990 1346 1163 1208 1209 1008H1391C1339 1306 1087 1514 771 1514C374 1514 90 1195 90 744C90 296 375 -24 771 -24Z" transform="translate(0 0)"/><path d="M767 -24C1162 -24 1444 297 1444 744C1444 1193 1162 1514 767 1514C372 1514 90 1193 90 744C90 297 372 -24 767 -24ZM767 144C496 144 270 358 270 744C270 1132 496 1346 767 1346C1037 1346 1264 1132 1264 744C1264 358 1037 144 767 144Z" transform="translate(1586 0)"/></g>
<g filter="url(#softGlow)"><rect x="296" y="744" width="184" height="22" rx="11" fill="#FF45B4"/><rect x="544" y="744" width="184" height="22" rx="11" fill="#1FE7FF"/></g>
</svg>